<?xml version="1.0" encoding="UTF-8" standalone="no"?>
<!-- Created with PhotoLine 22.51 (www.pl32.de) -->
<!DOCTYPE svg PUBLIC "-//W3C//DTD SVG 1.1//EN" "http://www.w3.org/Graphics/SVG/1.1/DTD/svg11.dtd">
<svg width="1235" height="178" viewBox="0 0 1235 178" version="1.1" xmlns="http://www.w3.org/2000/svg" xmlns:xlink="http://www.w3.org/1999/xlink">
  <g transform="matrix(1 0 0 1 0 -5)">
    <g id="Logo">
      <path fill="#002f6c" d="M0 23.7 L8.9 14.8 L8.9 175.7 L0 175.7 Z M26.6 16.2 L132.9 16.2 L132.9 7.4 L17.7 7.4 L17.7 113.7 L115.5 113.7 L115.5 104.8 L26.5 104.8 L26.5 16.2 Z M128.9 87.1 L44.3 87.1 L44.3 51.7 L116.7 51.7 L125.6 42.8 L44.3 42.8 L44.3 34 L132.9 34 L132.9 25.1 L44.3 25.1 L35.4 25.1 L35.4 96 L120.1 96 Z M17.7 175.7 L26.6 175.7 L26.6 131.4 L35.5 131.4 L35.5 168.3 L44.4 159.4 L44.4 131.4 L115.7 131.4 L115.7 122.5 L17.7 122.5 Z M449 7.4 L449 109.3 C449 133 438.4 153.4 413.7 169 L413.5 168.7 C429.7 155.8 440.1 139.3 440.1 118 L440.1 7.4 L431.2 7.4 L431.2 117.8 C431.2 149.6 405.4 173.5 373.6 173.5 C341.8 173.5 316 149.6 316 117.8 L316 14.8 L307.1 23.7 L307.1 118 C307.1 154.7 336.8 182.2 373.5 182.2 C374.3 182.2 382.4 182.2 382.4 182.2 C418.5 182.2 457.7 155.5 457.7 109.4 C457.7 109.4 457.7 7.4 457.7 7.4 Z M373.7 164.6 C400.6 164.6 422.4 144.7 422.4 117.8 L422.4 117.8 L422.4 14.8 L413.5 23.7 L413.5 109.3 C413.5 126.4 399.6 138.1 382.5 138.1 C365.4 138.1 351.5 126.4 351.5 109.3 L351.5 7.4 L342.6 7.4 L342.6 109.3 C342.6 131.3 360.4 146.9 382.5 146.9 C391.5 146.9 402.4 142.5 409.9 134.6 L410.1 134.9 C403.1 147.8 390.3 155.8 373.7 155.8 C351.8 155.8 334.1 140 333.8 118.2 L333.8 118.2 L333.8 7.4 L325 7.4 L325 118.1 L325 118.1 C325.2 144.8 346.9 164.6 373.7 164.6 Z M176.9 122.5 L154.5 175.6 L163.4 175.6 L163.4 175.6 L163.4 175.6 L174.6 149 L249.6 149 L260.8 175.6 L269.7 175.6 L254.8 140.2 L178.4 140.2 L182.1 131.3 L259.9 131.3 L278.5 175.6 L287.4 175.6 L265 122.5 Z M189.9 7.4 L124.8 161.8 L130.4 169.5 L198.7 7.4 Z M225.3 7.4 L293.5 169.5 L299.1 161.8 L234.1 7.4 Z M171.7 113.7 L145.5 175.7 L136.6 175.7 L203.1 17.9 L239.7 104.8 L248.6 104.8 L207.6 7.4 L216.5 7.4 L261.3 113.7 Z M212.1 60 L193.2 104.8 L230.9 104.8 Z M175.4 104.8 L184.3 104.8 L207.6 49.5 L203.2 39 Z"/>
    </g>
    <g id="FAU-Titel">
      <path fill="#002f6c" d="M524.3 13.1 L508.4 13.1 L508.4 21.9 L520.3 21.9 L520.3 27.6 L508.4 27.6 L508.4 42.6 L502.1 42.6 L502.1 7.4 L524.3 7.4 Z M543.1 17 L542.1 23.2 C541.1 22.7 540 22.4 538.8 22.4 C534.6 22.4 533.6 25.7 533.6 29.6 L533.6 42.7 L527.6 42.7 L527.6 17.1 L533.5 17.1 L533.5 20.3 L533.6 20.3 C534.9 17.9 537.4 16.5 540.3 16.5 C541.1 16.5 542.2 16.6 543.1 17 Z M554.8 9.4 C554.8 11.4 553.1 13 551 13 C548.9 13 547.2 11.5 547.2 9.4 C547.2 7.3 548.9 5.8 551 5.8 C553.1 5.8 554.8 7.4 554.8 9.4 Z M554 42.6 L548 42.6 L548 17.1 L554 17.1 Z M582.9 39 C580 41.8 576.7 43.2 572.9 43.2 C565.3 43.2 560.3 37.8 560.3 29.8 C560.3 21.9 565.1 16.5 572.2 16.5 C579.1 16.5 583.6 21.6 583.6 29.5 C583.6 30.3 583.6 31.2 583.5 31.9 L566.3 31.9 C567 35.9 569.4 38.1 573 38.1 C575.3 38.1 577.2 37.1 579.3 35.1 Z M566.3 27.6 L577.8 27.6 C577.6 23.6 575.5 21.4 572.2 21.4 C568.8 21.4 566.7 23.6 566.3 27.6 Z M588.7 29.8 C588.7 21.6 592.9 16.5 599.1 16.5 C602.3 16.5 604.8 17.8 606.5 20 L606.6 20 L606.6 6.9 L612.6 5.4 L612.6 42.7 L606.8 42.7 L606.8 39.7 L606.7 39.7 C604.9 41.9 602.2 43.4 599 43.4 C592.9 43.2 588.7 38 588.7 29.8 Z M594.6 29.7 C594.6 34.9 596.8 37.9 600.5 37.9 C602.8 37.9 604.7 36.8 606.6 34.6 L606.6 25.3 C604.9 23 602.9 21.9 600.5 21.9 C596.6 21.9 594.6 24.7 594.6 29.7 Z M635.7 17 L634.7 23.2 C633.7 22.7 632.6 22.4 631.4 22.4 C627.2 22.4 626.2 25.7 626.2 29.6 L626.2 42.7 L620.2 42.7 L620.2 17.1 L626.1 17.1 L626.1 20.3 L626.2 20.3 C627.5 17.9 630 16.5 632.9 16.5 C633.7 16.5 634.7 16.6 635.7 17 Z M647.4 9.4 C647.4 11.4 645.7 13 643.6 13 C641.5 13 639.8 11.5 639.8 9.4 C639.8 7.3 641.5 5.8 643.6 5.8 C645.7 5.8 647.4 7.4 647.4 9.4 Z M646.6 42.6 L640.6 42.6 L640.6 17.1 L646.6 17.1 Z M674.3 39.1 C671.8 41.9 668.8 43.2 665.1 43.2 C657.8 43.2 652.9 37.9 652.9 29.9 C652.9 21.9 657.9 16.5 665.2 16.5 C669 16.5 672.2 18 674.4 20.8 L670.3 24.8 C668.8 22.8 667.2 21.9 665.2 21.9 C661.4 21.9 658.8 25.1 658.8 29.8 C658.8 34.6 661.3 37.8 665 37.8 C667 37.8 668.6 36.9 670.2 34.9 Z M701.4 42.6 L695.4 42.6 L695.4 28 C695.4 24.2 694.3 21.8 690.7 21.8 C686.6 21.8 685.3 25 685.3 28 L685.3 42.6 L679.3 42.6 L679.3 6.9 L685.3 5.4 L685.3 20.3 L685.4 20.3 C686.9 18.1 689.5 16.6 692.9 16.6 C698.8 16.6 701.3 21 701.3 26.9 L701.3 42.6 Z M720.7 29.8 L708.2 29.8 L708.2 24.1 L720.7 24.1 Z M736.8 7.4 L743.4 7.4 L756.5 42.6 L749.6 42.6 L747.1 35.1 L732.9 35.1 L730.3 42.6 L723.6 42.6 Z M745.2 29.5 L740.1 14.6 L740 14.6 L734.9 29.5 Z M767.7 42.6 L761.7 42.6 L761.7 6.8 L767.7 5.4 Z M796.7 39 C793.8 41.8 790.5 43.2 786.7 43.2 C779.1 43.2 774.1 37.8 774.1 29.8 C774.1 21.9 778.9 16.5 786 16.5 C792.9 16.5 797.4 21.6 797.4 29.5 C797.4 30.3 797.4 31.2 797.3 31.9 L780.1 31.9 C780.8 35.9 783.2 38.1 786.8 38.1 C789.1 38.1 791 37.1 793.1 35.1 Z M780.1 27.6 L791.6 27.6 C791.4 23.6 789.4 21.4 786 21.4 C782.6 21.4 780.5 23.6 780.1 27.6 Z M824.8 42.6 L818 42.6 L812.5 33.8 L812.4 33.8 L807.1 42.6 L800.4 42.6 L809.1 29.4 L801 17.1 L807.7 17.1 L812.5 24.9 L812.6 24.9 L817.4 17.1 L824 17.1 L816 29.3 Z M838.9 26.8 C840.6 26.8 842.1 27 843.7 27.3 L843.7 26.4 C843.7 23.1 841.8 21.4 838.1 21.4 C836.1 21.4 833.7 21.9 831.6 22.8 L830.3 17.8 C832.6 16.9 835.8 16.3 838.7 16.3 C845.9 16.3 849.6 19.6 849.6 26.1 L849.6 42.4 L843.9 42.4 L843.9 39.7 L843.8 39.7 C841.6 41.9 839.3 43 836.3 43 C831.1 43 827.9 39.8 827.9 34.9 C827.9 29.7 831.8 26.8 838.9 26.8 Z M837.9 38.7 C840.1 38.7 842.1 37.7 843.7 35.7 L843.7 31.3 C842.3 31 840.8 30.8 839.5 30.8 C835.7 30.8 833.6 32.3 833.6 35 C833.6 37.2 835.3 38.7 837.9 38.7 Z M879 42.6 L873 42.6 L873 28 C873 24.3 871.9 21.8 868.3 21.8 C864.1 21.8 863 25.2 863 28 L863 42.6 L857 42.6 L857 17.1 L862.9 17.1 L862.9 20.2 L863 20.2 C864.5 17.9 867.2 16.5 870.5 16.5 C876.3 16.5 878.9 20.7 878.9 26.8 L878.9 42.6 Z M885.2 29.8 C885.2 21.6 889.4 16.5 895.6 16.5 C898.8 16.5 901.3 17.8 903 20 L903.1 20 L903.1 6.9 L909.1 5.4 L909.1 42.7 L903.3 42.7 L903.3 39.7 L903.2 39.7 C901.4 41.9 898.7 43.4 895.5 43.4 C889.4 43.2 885.2 38 885.2 29.8 Z M891.1 29.7 C891.1 34.9 893.3 37.9 897 37.9 C899.3 37.9 901.2 36.8 903.1 34.6 L903.1 25.3 C901.4 23 899.4 21.9 897 21.9 C893.2 21.9 891.1 24.7 891.1 29.7 Z M938.1 39 C935.2 41.8 931.9 43.2 928.1 43.2 C920.5 43.2 915.5 37.8 915.5 29.8 C915.5 21.9 920.3 16.5 927.4 16.5 C934.3 16.5 938.8 21.6 938.8 29.5 C938.8 30.3 938.8 31.2 938.7 31.9 L921.5 31.9 C922.2 35.9 924.6 38.1 928.2 38.1 C930.5 38.1 932.4 37.1 934.5 35.1 Z M921.4 27.6 L932.9 27.6 C932.7 23.6 930.7 21.4 927.3 21.4 C923.9 21.4 921.9 23.6 921.4 27.6 Z M960.6 17 L959.6 23.2 C958.6 22.7 957.5 22.4 956.3 22.4 C952.1 22.4 951.1 25.7 951.1 29.6 L951.1 42.7 L945.1 42.7 L945.1 17.1 L951 17.1 L951 20.3 L951.1 20.3 C952.4 17.9 954.9 16.5 957.8 16.5 C958.6 16.5 959.7 16.6 960.6 17 Z M976.8 29.8 L964.3 29.8 L964.3 24.1 L976.8 24.1 Z M1011.9 28.6 C1011.9 37.1 1007.5 43.2 998.1 43.2 C988.7 43.2 984.4 37.1 984.4 28.6 L984.4 7.3 L990.8 7.3 L990.8 28.3 C990.8 33.6 993.1 37.2 998.3 37.2 C1003.5 37.2 1005.5 33.7 1005.5 28.3 L1005.5 7.3 L1011.9 7.3 Z M1041.6 42.6 L1035.6 42.6 L1035.6 28 C1035.6 24.3 1034.5 21.8 1030.9 21.8 C1026.7 21.8 1025.6 25.2 1025.6 28 L1025.6 42.6 L1019.6 42.6 L1019.6 17.1 L1025.5 17.1 L1025.5 20.2 L1025.6 20.2 C1027.1 17.9 1029.8 16.5 1033.1 16.5 C1038.9 16.5 1041.5 20.7 1041.5 26.8 L1041.5 42.6 Z M1055.9 9.4 C1055.9 11.4 1054.2 13 1052.1 13 C1050 13 1048.3 11.5 1048.3 9.4 C1048.3 7.3 1050 5.8 1052.1 5.8 C1054.2 5.8 1055.9 7.4 1055.9 9.4 Z M1055.1 42.6 L1049.1 42.6 L1049.1 17.1 L1055.1 17.1 Z M1084.8 17.1 L1075.5 42.6 L1069.3 42.6 L1060.1 17.1 L1066.6 17.1 L1072.5 35.6 L1072.6 35.6 L1078.5 17.1 Z M1110.1 39 C1107.2 41.8 1103.9 43.2 1100.1 43.2 C1092.5 43.2 1087.5 37.8 1087.5 29.8 C1087.5 21.9 1092.3 16.5 1099.4 16.5 C1106.3 16.5 1110.8 21.6 1110.8 29.5 C1110.8 30.3 1110.8 31.2 1110.7 31.9 L1093.5 31.9 C1094.2 35.9 1096.6 38.1 1100.2 38.1 C1102.5 38.1 1104.4 37.1 1106.5 35.1 Z M1093.5 27.6 L1105 27.6 C1104.8 23.6 1102.7 21.4 1099.4 21.4 C1096 21.4 1093.9 23.6 1093.5 27.6 Z M1132.7 17 L1131.7 23.2 C1130.7 22.7 1129.6 22.4 1128.4 22.4 C1124.2 22.4 1123.2 25.7 1123.2 29.6 L1123.2 42.7 L1117.2 42.7 L1117.2 17.1 L1123.1 17.1 L1123.1 20.3 L1123.2 20.3 C1124.5 17.9 1127 16.5 1129.9 16.5 C1130.7 16.5 1131.7 16.6 1132.7 17 Z M1138.3 35.4 C1140.8 37.3 1143.3 38.3 1145.5 38.3 C1147.7 38.3 1149.3 37.2 1149.3 35.7 C1149.3 31.4 1136.5 32.9 1136.5 24.4 C1136.5 19.7 1140.4 16.5 1146.2 16.5 C1149.3 16.5 1152.3 17.4 1155 19.2 L1152.2 23.9 C1150 22.4 1148 21.7 1146.1 21.7 C1143.9 21.7 1142.4 22.7 1142.4 24 C1142.4 28.1 1155.2 26.7 1155.2 35.3 C1155.2 40.1 1151.2 43.4 1145.3 43.4 C1141.9 43.4 1138.5 42.3 1135.5 40.3 Z M1168.1 9.4 C1168.1 11.4 1166.4 13 1164.3 13 C1162.2 13 1160.5 11.5 1160.5 9.4 C1160.5 7.3 1162.2 5.8 1164.3 5.8 C1166.4 5.8 1168.1 7.4 1168.1 9.4 Z M1167.3 42.6 L1161.3 42.6 L1161.3 17.1 L1167.3 17.1 Z M1188.2 37.1 L1188.2 42.2 C1187 42.8 1185 43.2 1183.2 43.2 C1178.6 43.2 1176.2 40.6 1176.2 36 L1176.2 22 L1172.4 22 L1172.4 17 L1176.2 17 L1176.2 10 L1182.1 8.7 L1182.1 17 L1188.2 17 L1188.2 22 L1182.1 22 L1182.1 34.6 C1182.1 36.9 1182.9 37.9 1184.9 37.9 C1186 37.9 1187.2 37.6 1188.2 37.1 Z M1203.8 26.8 C1205.5 26.8 1207 27 1208.6 27.3 L1208.6 26.4 C1208.6 23.1 1206.7 21.4 1203 21.4 C1201 21.4 1198.5 21.9 1196.5 22.8 L1195.2 17.8 C1197.5 16.9 1200.7 16.3 1203.5 16.3 C1210.7 16.3 1214.4 19.6 1214.4 26.1 L1214.4 42.4 L1208.7 42.4 L1208.7 39.7 L1208.6 39.7 C1206.4 41.9 1204.1 43 1201.1 43 C1196 43 1192.7 39.8 1192.7 34.9 C1192.8 29.7 1196.7 26.8 1203.8 26.8 Z M1198.9 13.2 C1197 13.2 1195.3 11.6 1195.3 9.7 C1195.3 7.8 1197 6.2 1198.9 6.2 C1200.8 6.2 1202.4 7.8 1202.4 9.7 C1202.5 11.6 1200.8 13.2 1198.9 13.2 Z M1202.8 38.7 C1205 38.7 1207 37.7 1208.6 35.7 L1208.6 31.3 C1207.2 31 1205.8 30.8 1204.4 30.8 C1200.7 30.8 1198.5 32.3 1198.5 35 C1198.5 37.2 1200.2 38.7 1202.8 38.7 Z M1209.3 13.2 C1207.4 13.2 1205.8 11.6 1205.8 9.7 C1205.8 7.8 1207.4 6.2 1209.3 6.2 C1211.3 6.2 1212.8 7.8 1212.8 9.7 C1212.9 11.6 1211.3 13.2 1209.3 13.2 Z M1234.8 37.1 L1234.8 42.2 C1233.6 42.8 1231.6 43.2 1229.8 43.2 C1225.2 43.2 1222.8 40.6 1222.8 36 L1222.8 22 L1219 22 L1219 17 L1222.8 17 L1222.8 10 L1228.7 8.7 L1228.7 17 L1234.8 17 L1234.8 22 L1228.7 22 L1228.7 34.6 C1228.7 36.9 1229.5 37.9 1231.5 37.9 C1232.7 37.9 1233.8 37.6 1234.8 37.1 Z"/>
    </g>
    <g id="Titel">
      <path fill="#8c9fb1" d="M525.7 68.2 L515.7 68.2 L515.7 97.6 L509.4 97.6 L509.4 68.2 L499.4 68.2 L499.4 62.3 L525.7 62.3 Z M548.6 94 C545.7 96.8 542.4 98.2 538.6 98.2 C531 98.2 526 92.8 526 84.8 C526 76.9 530.8 71.5 537.9 71.5 C544.8 71.5 549.3 76.6 549.3 84.5 C549.3 85.3 549.3 86.2 549.2 86.9 L532 86.9 C532.7 90.9 535.1 93.1 538.7 93.1 C541 93.1 542.9 92.1 545 90.1 Z M531.9 82.6 L543.4 82.6 C543.2 78.6 541.2 76.4 537.8 76.4 C534.4 76.4 532.4 78.6 531.9 82.6 Z M575.6 94.1 C573.1 96.9 570.1 98.2 566.4 98.2 C559.1 98.2 554.2 93 554.2 85 C554.2 77 559.2 71.6 566.5 71.6 C570.3 71.6 573.5 73.1 575.7 75.9 L571.6 79.9 C570.1 77.9 568.5 77 566.5 77 C562.7 77 560.1 80.2 560.1 84.9 C560.1 89.7 562.6 92.9 566.3 92.9 C568.3 92.9 569.9 92 571.5 90 Z M602.7 97.6 L596.7 97.6 L596.7 83 C596.7 79.2 595.6 76.8 592 76.8 C587.9 76.8 586.6 80 586.6 83 L586.6 97.6 L580.6 97.6 L580.6 61.9 L586.6 60.4 L586.6 75.3 L586.7 75.3 C588.2 73.1 590.8 71.6 594.2 71.6 C600.1 71.6 602.6 76 602.6 81.9 L602.6 97.6 Z M632.1 97.6 L626.1 97.6 L626.1 83 C626.1 79.3 625 76.8 621.4 76.8 C617.2 76.8 616.1 80.2 616.1 83 L616.1 97.6 L610.1 97.6 L610.1 72.1 L616 72.1 L616 75.2 L616.1 75.2 C617.6 72.9 620.3 71.5 623.6 71.5 C629.4 71.5 632 75.7 632 81.8 L632 97.6 Z M646.3 64.4 C646.3 66.4 644.6 68 642.5 68 C640.4 68 638.7 66.5 638.7 64.4 C638.7 62.3 640.4 60.8 642.5 60.8 C644.6 60.8 646.3 62.4 646.3 64.4 Z M645.5 97.6 L639.5 97.6 L639.5 72.1 L645.5 72.1 Z M653.8 90.4 C656.3 92.3 658.8 93.3 661 93.3 C663.2 93.3 664.8 92.2 664.8 90.7 C664.8 86.4 652 87.9 652 79.4 C652 74.7 655.9 71.5 661.7 71.5 C664.8 71.5 667.8 72.4 670.5 74.2 L667.7 78.9 C665.5 77.4 663.5 76.7 661.6 76.7 C659.4 76.7 657.9 77.7 657.9 79 C657.9 83.1 670.7 81.7 670.7 90.3 C670.7 95.1 666.7 98.3 660.8 98.3 C657.4 98.3 654 97.2 651 95.2 Z M696.8 94.1 C694.3 96.9 691.3 98.2 687.6 98.2 C680.3 98.2 675.4 93 675.4 85 C675.4 77 680.4 71.6 687.7 71.6 C691.5 71.6 694.7 73.1 696.9 75.9 L692.8 79.9 C691.3 77.9 689.7 77 687.7 77 C683.9 77 681.3 80.2 681.3 84.9 C681.3 89.7 683.8 92.9 687.5 92.9 C689.5 92.9 691.1 92 692.7 90 Z M723.9 97.6 L717.9 97.6 L717.9 83 C717.9 79.2 716.8 76.8 713.2 76.8 C709.1 76.8 707.8 80 707.8 83 L707.8 97.6 L701.8 97.6 L701.8 61.9 L707.8 60.4 L707.8 75.3 L707.9 75.3 C709.4 73.1 712 71.6 715.4 71.6 C721.3 71.6 723.8 76 723.8 81.9 L723.8 97.6 Z M752.7 94 C749.8 96.8 746.5 98.2 742.7 98.2 C735.1 98.2 730.1 92.8 730.1 84.8 C730.1 76.9 734.9 71.5 742 71.5 C748.9 71.5 753.4 76.6 753.4 84.5 C753.4 85.3 753.4 86.2 753.3 86.9 L736.1 86.9 C736.8 90.9 739.2 93.1 742.8 93.1 C745.1 93.1 747 92.1 749.1 90.1 Z M736 82.6 L747.5 82.6 C747.3 78.6 745.2 76.4 741.9 76.4 C738.6 76.4 736.5 78.6 736 82.6 Z M796.8 68.1 L781 68.1 L781 76.9 L792.9 76.9 L792.9 82.6 L781 82.6 L781 97.6 L774.7 97.6 L774.7 62.4 L796.9 62.4 L796.9 68.1 Z M808.9 81.8 C810.6 81.8 812.1 82 813.7 82.3 L813.7 81.4 C813.7 78.1 811.8 76.4 808.1 76.4 C806.1 76.4 803.7 76.9 801.6 77.8 L800.3 72.8 C802.6 71.9 805.8 71.3 808.7 71.3 C815.9 71.3 819.6 74.6 819.6 81.1 L819.6 97.4 L813.9 97.4 L813.9 94.7 L813.8 94.7 C811.6 96.9 809.3 98 806.3 98 C801.1 98 797.9 94.9 797.9 89.9 C797.9 84.7 801.8 81.8 808.9 81.8 Z M807.9 93.7 C810.1 93.7 812.1 92.7 813.7 90.7 L813.7 86.3 C812.3 86 810.8 85.8 809.5 85.8 C805.7 85.8 803.6 87.3 803.6 90 C803.6 92.2 805.3 93.7 807.9 93.7 Z M827.1 61.9 L833.1 60.4 L833.1 82.8 L833.2 82.8 L841.6 72.1 L848.6 72.1 L840.2 82.1 L849.5 97.6 L842.4 97.6 L836 86.6 L833 89.8 L833 97.6 L827 97.6 L827 61.9 Z M859.8 87.4 C859.8 90.9 861.6 92.8 864.9 92.8 C868.1 92.8 869.9 91 869.9 87.3 L869.9 72.1 L875.9 72.1 L875.9 87.6 C875.9 94.4 872.1 98.3 865.2 98.3 C858.2 98.3 854 94.4 854 87.7 L854 72.1 L860 72.1 L860 87.4 Z M889.3 97.6 L883.3 97.6 L883.3 61.8 L889.3 60.4 Z M910.2 92.1 L910.2 97.1 C909 97.8 907 98.1 905.2 98.1 C900.6 98.1 898.2 95.6 898.2 91 L898.2 77 L894.4 77 L894.4 72 L898.2 72 L898.2 65 L904.1 63.7 L904.1 72 L910.2 72 L910.2 77 L904.1 77 L904.1 89.6 C904.1 91.9 904.9 92.9 906.9 92.9 C908.1 92.9 909.2 92.6 910.2 92.1 Z M925.8 81.8 C927.5 81.8 929 82 930.6 82.3 L930.6 81.4 C930.6 78.1 928.7 76.4 925 76.4 C923 76.4 920.5 76.9 918.5 77.8 L917.2 72.8 C919.5 71.9 922.7 71.3 925.5 71.3 C932.7 71.3 936.4 74.6 936.4 81.1 L936.4 97.4 L930.7 97.4 L930.7 94.7 L930.6 94.7 C928.4 96.9 926.1 98 923.1 98 C918 98 914.7 94.9 914.7 89.9 C914.8 84.7 918.7 81.8 925.8 81.8 Z M920.9 68.2 C919 68.2 917.3 66.6 917.3 64.7 C917.3 62.8 919 61.2 920.9 61.2 C922.8 61.2 924.4 62.8 924.4 64.7 C924.5 66.6 922.8 68.2 920.9 68.2 Z M924.8 93.7 C927 93.7 929 92.7 930.6 90.7 L930.6 86.3 C929.2 86 927.8 85.8 926.4 85.8 C922.7 85.8 920.5 87.3 920.5 90 C920.5 92.2 922.2 93.7 924.8 93.7 Z M931.3 68.2 C929.4 68.2 927.8 66.6 927.8 64.7 C927.8 62.8 929.4 61.2 931.3 61.2 C933.3 61.2 934.8 62.8 934.8 64.7 C934.9 66.6 933.3 68.2 931.3 68.2 Z M956.9 92.1 L956.9 97.1 C955.7 97.8 953.7 98.1 951.9 98.1 C947.3 98.1 944.9 95.6 944.9 91 L944.9 77 L941.1 77 L941.1 72 L944.9 72 L944.9 65 L950.8 63.7 L950.8 72 L956.9 72 L956.9 77 L950.8 77 L950.8 89.6 C950.8 91.9 951.6 92.9 953.6 92.9 C954.7 92.9 955.9 92.6 956.9 92.1 Z"/>
    </g>
  </g>
</svg>
